<mxfile host="app.diagrams.net" modified="2023-03-06T07:01:32.552Z" agent="5.0 (Macintosh; Intel Mac OS X 10_15_7) AppleWebKit/537.36 (KHTML, like Gecko) Chrome/110.0.0.0 Safari/537.36" etag="8dzoTBA_qLeQABK4EqVV" version="21.0.2" type="github">
  <diagram id="6a731a19-8d31-9384-78a2-239565b7b9f0" name="Page-1">
    <mxGraphModel dx="1656" dy="1061" grid="1" gridSize="10" guides="1" tooltips="1" connect="1" arrows="1" fold="1" page="1" pageScale="1" pageWidth="1169" pageHeight="827" background="none" math="0" shadow="0">
      <root>
        <mxCell id="0" />
        <mxCell id="1" parent="0" />
        <mxCell id="2" value="start" style="shape=mxgraph.flowchart.terminator;strokeWidth=2;gradientColor=none;gradientDirection=north;fontStyle=0;html=1;" parent="1" vertex="1">
          <mxGeometry x="520" y="30" width="120" height="30" as="geometry" />
        </mxCell>
        <mxCell id="4" value="로그인 진행" style="shape=mxgraph.flowchart.data;strokeWidth=2;gradientColor=none;gradientDirection=north;fontStyle=0;html=1;" parent="1" vertex="1">
          <mxGeometry x="506" y="544.75" width="159" height="54.75" as="geometry" />
        </mxCell>
        <mxCell id="5" value="앱으로 진입" style="shape=mxgraph.flowchart.data;strokeWidth=2;gradientColor=none;gradientDirection=north;fontStyle=0;html=1;" parent="1" vertex="1">
          <mxGeometry x="501.5" y="80" width="159" height="80" as="geometry" />
        </mxCell>
        <mxCell id="6" value="회원인가?" style="shape=mxgraph.flowchart.decision;strokeWidth=2;gradientColor=none;gradientDirection=north;fontStyle=0;html=1;" parent="1" vertex="1">
          <mxGeometry x="531" y="200" width="98" height="57" as="geometry" />
        </mxCell>
        <mxCell id="7" style="fontStyle=1;strokeColor=#003366;strokeWidth=1;html=1;entryX=0.5;entryY=0;entryDx=0;entryDy=0;entryPerimeter=0;" parent="1" source="2" target="5" edge="1">
          <mxGeometry relative="1" as="geometry">
            <mxPoint x="580" y="100" as="targetPoint" />
          </mxGeometry>
        </mxCell>
        <mxCell id="9" style="entryX=0.5;entryY=0;entryPerimeter=0;fontStyle=1;strokeColor=#003366;strokeWidth=1;html=1;" parent="1" source="5" target="6" edge="1">
          <mxGeometry relative="1" as="geometry" />
        </mxCell>
        <mxCell id="10" value="" style="edgeStyle=elbowEdgeStyle;elbow=horizontal;entryX=0.5;entryY=0;entryPerimeter=0;exitX=0.5;exitY=1;exitPerimeter=0;fontStyle=1;strokeColor=#003366;strokeWidth=1;html=1;entryDx=0;entryDy=0;exitDx=0;exitDy=0;" parent="1" source="6" target="KHfeq76rPsBCzR7GLYuD-55" edge="1">
          <mxGeometry x="641" y="-161.5" width="100" height="100" as="geometry">
            <mxPoint x="1010" y="257" as="sourcePoint" />
            <mxPoint x="1025.395" y="128.5" as="targetPoint" />
            <Array as="points">
              <mxPoint x="580" y="355.25" />
              <mxPoint x="800" y="270" />
            </Array>
          </mxGeometry>
        </mxCell>
        <mxCell id="11" value="No" style="text;fontStyle=0;html=1;strokeColor=none;gradientColor=none;fillColor=none;strokeWidth=2;" parent="1" vertex="1">
          <mxGeometry x="541" y="240" width="40" height="26" as="geometry" />
        </mxCell>
        <mxCell id="12" value="" style="edgeStyle=elbowEdgeStyle;elbow=horizontal;fontColor=#001933;fontStyle=1;strokeColor=#003366;strokeWidth=1;html=1;entryX=0.905;entryY=0.5;entryDx=0;entryDy=0;entryPerimeter=0;" parent="1" source="6" target="4" edge="1">
          <mxGeometry x="260" y="-190" width="100" height="100" as="geometry">
            <mxPoint x="260" y="-90" as="sourcePoint" />
            <mxPoint x="670" y="625.25" as="targetPoint" />
            <Array as="points">
              <mxPoint x="900" y="435.25" />
              <mxPoint x="990" y="445.25" />
            </Array>
          </mxGeometry>
        </mxCell>
        <mxCell id="14" value="Yes" style="text;fontStyle=0;html=1;strokeColor=none;gradientColor=none;fillColor=none;strokeWidth=2;align=center;" parent="1" vertex="1">
          <mxGeometry x="650" y="200" width="40" height="26" as="geometry" />
        </mxCell>
        <mxCell id="17" value="" style="edgeStyle=elbowEdgeStyle;elbow=horizontal;fontStyle=1;strokeColor=#003366;strokeWidth=1;html=1;exitX=0.5;exitY=1;exitDx=0;exitDy=0;exitPerimeter=0;" parent="1" source="4" target="KHfeq76rPsBCzR7GLYuD-59" edge="1">
          <mxGeometry x="787" y="-190" width="100" height="100" as="geometry">
            <mxPoint x="787" y="-90" as="sourcePoint" />
            <mxPoint x="1236" y="510" as="targetPoint" />
          </mxGeometry>
        </mxCell>
        <mxCell id="KHfeq76rPsBCzR7GLYuD-64" value="" style="edgeStyle=orthogonalEdgeStyle;rounded=0;orthogonalLoop=1;jettySize=auto;html=1;" edge="1" parent="1" source="KHfeq76rPsBCzR7GLYuD-55" target="KHfeq76rPsBCzR7GLYuD-63">
          <mxGeometry relative="1" as="geometry" />
        </mxCell>
        <mxCell id="KHfeq76rPsBCzR7GLYuD-55" value="회원가입&lt;br&gt;시퀀스로 진입" style="shape=mxgraph.flowchart.predefined_process;strokeWidth=2;gradientColor=none;gradientDirection=north;fontStyle=0;html=1;" vertex="1" parent="1">
          <mxGeometry x="490.5" y="276" width="190" height="64" as="geometry" />
        </mxCell>
        <mxCell id="KHfeq76rPsBCzR7GLYuD-79" value="" style="edgeStyle=orthogonalEdgeStyle;rounded=0;orthogonalLoop=1;jettySize=auto;html=1;exitX=0;exitY=0.5;exitDx=0;exitDy=0;entryX=0.383;entryY=-0.015;entryDx=0;entryDy=0;entryPerimeter=0;" edge="1" parent="1" source="KHfeq76rPsBCzR7GLYuD-59" target="KHfeq76rPsBCzR7GLYuD-78">
          <mxGeometry relative="1" as="geometry">
            <mxPoint x="500" y="609.9966666666668" as="sourcePoint" />
            <mxPoint x="370" y="620" as="targetPoint" />
          </mxGeometry>
        </mxCell>
        <mxCell id="KHfeq76rPsBCzR7GLYuD-81" value="" style="edgeStyle=orthogonalEdgeStyle;rounded=0;orthogonalLoop=1;jettySize=auto;html=1;" edge="1" parent="1" source="KHfeq76rPsBCzR7GLYuD-59" target="KHfeq76rPsBCzR7GLYuD-80">
          <mxGeometry relative="1" as="geometry" />
        </mxCell>
        <mxCell id="KHfeq76rPsBCzR7GLYuD-83" value="" style="edgeStyle=orthogonalEdgeStyle;rounded=0;orthogonalLoop=1;jettySize=auto;html=1;" edge="1" parent="1" source="KHfeq76rPsBCzR7GLYuD-59" target="KHfeq76rPsBCzR7GLYuD-82">
          <mxGeometry relative="1" as="geometry" />
        </mxCell>
        <mxCell id="KHfeq76rPsBCzR7GLYuD-59" value="홈화면 진입" style="rounded=1;whiteSpace=wrap;html=1;" vertex="1" parent="1">
          <mxGeometry x="500" y="624.75" width="171" height="60" as="geometry" />
        </mxCell>
        <mxCell id="KHfeq76rPsBCzR7GLYuD-62" style="edgeStyle=orthogonalEdgeStyle;rounded=0;orthogonalLoop=1;jettySize=auto;html=1;exitX=0.5;exitY=1;exitDx=0;exitDy=0;" edge="1" parent="1" source="11" target="11">
          <mxGeometry relative="1" as="geometry" />
        </mxCell>
        <mxCell id="KHfeq76rPsBCzR7GLYuD-66" value="" style="edgeStyle=orthogonalEdgeStyle;rounded=0;orthogonalLoop=1;jettySize=auto;html=1;exitX=1;exitY=0.5;exitDx=0;exitDy=0;exitPerimeter=0;entryX=0.5;entryY=0;entryDx=0;entryDy=0;" edge="1" parent="1" source="KHfeq76rPsBCzR7GLYuD-63" target="KHfeq76rPsBCzR7GLYuD-65">
          <mxGeometry relative="1" as="geometry">
            <mxPoint x="1005.5" y="425.25" as="sourcePoint" />
            <Array as="points">
              <mxPoint x="785" y="410" />
            </Array>
          </mxGeometry>
        </mxCell>
        <mxCell id="KHfeq76rPsBCzR7GLYuD-70" value="" style="edgeStyle=orthogonalEdgeStyle;rounded=0;orthogonalLoop=1;jettySize=auto;html=1;exitX=0;exitY=0.5;exitDx=0;exitDy=0;exitPerimeter=0;" edge="1" parent="1" source="KHfeq76rPsBCzR7GLYuD-63" target="KHfeq76rPsBCzR7GLYuD-69">
          <mxGeometry relative="1" as="geometry">
            <mxPoint x="340" y="408.5" as="sourcePoint" />
          </mxGeometry>
        </mxCell>
        <mxCell id="KHfeq76rPsBCzR7GLYuD-63" value="중복 데이터가 있는가?" style="shape=mxgraph.flowchart.decision;strokeWidth=2;gradientColor=none;gradientDirection=north;fontStyle=0;html=1;" vertex="1" parent="1">
          <mxGeometry x="485.5" y="381.5" width="200" height="57" as="geometry" />
        </mxCell>
        <mxCell id="KHfeq76rPsBCzR7GLYuD-73" style="edgeStyle=orthogonalEdgeStyle;rounded=0;orthogonalLoop=1;jettySize=auto;html=1;entryX=0.5;entryY=0;entryDx=0;entryDy=0;entryPerimeter=0;exitX=0.503;exitY=0.825;exitDx=0;exitDy=0;exitPerimeter=0;" edge="1" parent="1" source="KHfeq76rPsBCzR7GLYuD-65" target="4">
          <mxGeometry relative="1" as="geometry">
            <Array as="points">
              <mxPoint x="785" y="499.75" />
              <mxPoint x="585" y="499.75" />
            </Array>
          </mxGeometry>
        </mxCell>
        <mxCell id="KHfeq76rPsBCzR7GLYuD-65" value="alert 창 (중복된 유저)" style="shape=document;whiteSpace=wrap;html=1;boundedLbl=1;" vertex="1" parent="1">
          <mxGeometry x="720" y="438.5" width="130" height="50" as="geometry" />
        </mxCell>
        <mxCell id="KHfeq76rPsBCzR7GLYuD-67" value="Yes" style="text;fontStyle=0;html=1;strokeColor=none;gradientColor=none;fillColor=none;strokeWidth=2;align=center;" vertex="1" parent="1">
          <mxGeometry x="710" y="412.5" width="40" height="26" as="geometry" />
        </mxCell>
        <mxCell id="KHfeq76rPsBCzR7GLYuD-74" style="edgeStyle=orthogonalEdgeStyle;rounded=0;orthogonalLoop=1;jettySize=auto;html=1;exitX=0.5;exitY=1;exitDx=0;exitDy=0;entryX=0.095;entryY=0.5;entryDx=0;entryDy=0;entryPerimeter=0;" edge="1" parent="1" source="KHfeq76rPsBCzR7GLYuD-69" target="4">
          <mxGeometry relative="1" as="geometry">
            <mxPoint x="1270" y="640" as="targetPoint" />
            <Array as="points">
              <mxPoint x="400" y="560" />
            </Array>
          </mxGeometry>
        </mxCell>
        <mxCell id="KHfeq76rPsBCzR7GLYuD-69" value="회원가입 진행&lt;br&gt;1. 기본 카테고리 부여&lt;br&gt;2. Todo에 설명 글 저장" style="whiteSpace=wrap;html=1;strokeWidth=2;gradientColor=none;gradientDirection=north;fontStyle=0;" vertex="1" parent="1">
          <mxGeometry x="340" y="475" width="120" height="45" as="geometry" />
        </mxCell>
        <mxCell id="KHfeq76rPsBCzR7GLYuD-71" value="No" style="text;fontStyle=0;html=1;strokeColor=none;gradientColor=none;fillColor=none;strokeWidth=2;" vertex="1" parent="1">
          <mxGeometry x="434.5" y="412.5" width="40" height="26" as="geometry" />
        </mxCell>
        <mxCell id="KHfeq76rPsBCzR7GLYuD-85" value="" style="edgeStyle=orthogonalEdgeStyle;rounded=0;orthogonalLoop=1;jettySize=auto;html=1;" edge="1" parent="1" source="KHfeq76rPsBCzR7GLYuD-78" target="KHfeq76rPsBCzR7GLYuD-84">
          <mxGeometry relative="1" as="geometry" />
        </mxCell>
        <mxCell id="KHfeq76rPsBCzR7GLYuD-87" value="" style="edgeStyle=orthogonalEdgeStyle;rounded=0;orthogonalLoop=1;jettySize=auto;html=1;" edge="1" parent="1" source="KHfeq76rPsBCzR7GLYuD-78" target="KHfeq76rPsBCzR7GLYuD-86">
          <mxGeometry relative="1" as="geometry" />
        </mxCell>
        <mxCell id="KHfeq76rPsBCzR7GLYuD-89" value="" style="edgeStyle=orthogonalEdgeStyle;rounded=0;orthogonalLoop=1;jettySize=auto;html=1;" edge="1" parent="1" source="KHfeq76rPsBCzR7GLYuD-78" target="KHfeq76rPsBCzR7GLYuD-88">
          <mxGeometry relative="1" as="geometry" />
        </mxCell>
        <mxCell id="KHfeq76rPsBCzR7GLYuD-78" value="카테고리" style="whiteSpace=wrap;html=1;rounded=1;" vertex="1" parent="1">
          <mxGeometry x="190" y="659.88" width="120" height="60" as="geometry" />
        </mxCell>
        <mxCell id="KHfeq76rPsBCzR7GLYuD-80" value="통계보기&lt;br&gt;&lt;br&gt;투두 리스트 완성도&lt;br&gt;월, 주, 일별" style="whiteSpace=wrap;html=1;rounded=1;" vertex="1" parent="1">
          <mxGeometry x="860" y="704.75" width="120" height="105.25" as="geometry" />
        </mxCell>
        <mxCell id="KHfeq76rPsBCzR7GLYuD-82" value="TodoList 보기" style="whiteSpace=wrap;html=1;rounded=1;" vertex="1" parent="1">
          <mxGeometry x="524.5" y="711.75" width="120" height="60" as="geometry" />
        </mxCell>
        <mxCell id="KHfeq76rPsBCzR7GLYuD-84" value="생성" style="whiteSpace=wrap;html=1;rounded=1;" vertex="1" parent="1">
          <mxGeometry x="60" y="735.13" width="120" height="60" as="geometry" />
        </mxCell>
        <mxCell id="KHfeq76rPsBCzR7GLYuD-86" value="이름 수정" style="whiteSpace=wrap;html=1;rounded=1;" vertex="1" parent="1">
          <mxGeometry x="190" y="735.13" width="120" height="60" as="geometry" />
        </mxCell>
        <mxCell id="KHfeq76rPsBCzR7GLYuD-88" value="변경" style="whiteSpace=wrap;html=1;rounded=1;" vertex="1" parent="1">
          <mxGeometry x="320" y="735.13" width="120" height="60" as="geometry" />
        </mxCell>
      </root>
    </mxGraphModel>
  </diagram>
</mxfile>
